<mxfile host="app.diagrams.net" modified="2024-04-25T09:11:40.830Z" agent="Mozilla/5.0 (Windows NT 10.0; Win64; x64; rv:126.0) Gecko/20100101 Firefox/126.0" etag="R6cFS3NC4G5jl-a0oOMI" version="24.3.0" type="device">
  <diagram name="Page-1" id="_loOa55znEdXqwwxNVEN">
    <mxGraphModel dx="1434" dy="743" grid="1" gridSize="10" guides="1" tooltips="1" connect="1" arrows="1" fold="1" page="1" pageScale="1" pageWidth="850" pageHeight="1100" math="0" shadow="0">
      <root>
        <mxCell id="0" />
        <mxCell id="1" parent="0" />
        <mxCell id="VcwTWH4_keUuxqzdvM2R-22" value="AWS Cloud" style="points=[[0,0],[0.25,0],[0.5,0],[0.75,0],[1,0],[1,0.25],[1,0.5],[1,0.75],[1,1],[0.75,1],[0.5,1],[0.25,1],[0,1],[0,0.75],[0,0.5],[0,0.25]];outlineConnect=0;gradientColor=none;html=1;whiteSpace=wrap;fontSize=12;fontStyle=0;container=1;pointerEvents=0;collapsible=0;recursiveResize=0;shape=mxgraph.aws4.group;grIcon=mxgraph.aws4.group_aws_cloud_alt;strokeColor=#232F3E;fillColor=none;verticalAlign=top;align=left;spacingLeft=30;fontColor=#232F3E;dashed=0;" parent="1" vertex="1">
          <mxGeometry x="190" y="50" width="610" height="680" as="geometry" />
        </mxCell>
        <mxCell id="VcwTWH4_keUuxqzdvM2R-58" style="edgeStyle=orthogonalEdgeStyle;rounded=0;orthogonalLoop=1;jettySize=auto;html=1;startArrow=classic;startFill=1;" parent="VcwTWH4_keUuxqzdvM2R-22" edge="1">
          <mxGeometry relative="1" as="geometry">
            <Array as="points">
              <mxPoint x="196" y="587.25" />
              <mxPoint x="196" y="587.25" />
            </Array>
            <mxPoint x="142.5" y="586.75" as="sourcePoint" />
            <mxPoint x="306" y="586.75" as="targetPoint" />
          </mxGeometry>
        </mxCell>
        <mxCell id="VcwTWH4_keUuxqzdvM2R-74" style="edgeStyle=orthogonalEdgeStyle;rounded=0;orthogonalLoop=1;jettySize=auto;html=1;exitX=0.5;exitY=1;exitDx=0;exitDy=0;exitPerimeter=0;entryX=0.5;entryY=0;entryDx=0;entryDy=0;entryPerimeter=0;" parent="VcwTWH4_keUuxqzdvM2R-22" target="sgA1LJP8zv5Z8lZH73Rh-10" edge="1">
          <mxGeometry relative="1" as="geometry">
            <mxPoint x="303.75" y="135.25" as="sourcePoint" />
            <mxPoint x="303.79999999999995" y="207.25" as="targetPoint" />
          </mxGeometry>
        </mxCell>
        <mxCell id="VcwTWH4_keUuxqzdvM2R-75" style="edgeStyle=orthogonalEdgeStyle;rounded=0;orthogonalLoop=1;jettySize=auto;html=1;exitX=0.5;exitY=1;exitDx=0;exitDy=0;exitPerimeter=0;entryX=0.5;entryY=0;entryDx=0;entryDy=0;entryPerimeter=0;startArrow=none;startFill=0;" parent="VcwTWH4_keUuxqzdvM2R-22" target="sgA1LJP8zv5Z8lZH73Rh-8" edge="1">
          <mxGeometry relative="1" as="geometry">
            <mxPoint x="303.75" y="300.25" as="sourcePoint" />
            <mxPoint x="303.75" y="377.25" as="targetPoint" />
          </mxGeometry>
        </mxCell>
        <mxCell id="sgA1LJP8zv5Z8lZH73Rh-1" value="&lt;font style=&quot;font-size: 14px;&quot;&gt;ProductBucket&lt;/font&gt;" style="sketch=0;points=[[0,0,0],[0.25,0,0],[0.5,0,0],[0.75,0,0],[1,0,0],[0,1,0],[0.25,1,0],[0.5,1,0],[0.75,1,0],[1,1,0],[0,0.25,0],[0,0.5,0],[0,0.75,0],[1,0.25,0],[1,0.5,0],[1,0.75,0]];outlineConnect=0;fontColor=#232F3E;fillColor=#7AA116;strokeColor=#ffffff;dashed=0;verticalLabelPosition=bottom;verticalAlign=top;align=center;html=1;fontSize=12;fontStyle=0;aspect=fixed;shape=mxgraph.aws4.resourceIcon;resIcon=mxgraph.aws4.s3;" vertex="1" parent="VcwTWH4_keUuxqzdvM2R-22">
          <mxGeometry x="64.5" y="57.25" width="78" height="78" as="geometry" />
        </mxCell>
        <mxCell id="sgA1LJP8zv5Z8lZH73Rh-2" value="&lt;font style=&quot;font-size: 14px;&quot;&gt;ReadFIile&lt;/font&gt;" style="sketch=0;points=[[0,0,0],[0.25,0,0],[0.5,0,0],[0.75,0,0],[1,0,0],[0,1,0],[0.25,1,0],[0.5,1,0],[0.75,1,0],[1,1,0],[0,0.25,0],[0,0.5,0],[0,0.75,0],[1,0.25,0],[1,0.5,0],[1,0.75,0]];outlineConnect=0;fontColor=#232F3E;fillColor=#ED7100;strokeColor=#ffffff;dashed=0;verticalLabelPosition=bottom;verticalAlign=top;align=center;html=1;fontSize=12;fontStyle=0;aspect=fixed;shape=mxgraph.aws4.resourceIcon;resIcon=mxgraph.aws4.lambda;" vertex="1" parent="VcwTWH4_keUuxqzdvM2R-22">
          <mxGeometry x="265.5" y="57.25" width="78" height="78" as="geometry" />
        </mxCell>
        <mxCell id="sgA1LJP8zv5Z8lZH73Rh-3" value="&lt;font style=&quot;font-size: 14px;&quot;&gt;GetProducts&lt;/font&gt;" style="sketch=0;points=[[0,0,0],[0.25,0,0],[0.5,0,0],[0.75,0,0],[1,0,0],[0,1,0],[0.25,1,0],[0.5,1,0],[0.75,1,0],[1,1,0],[0,0.25,0],[0,0.5,0],[0,0.75,0],[1,0.25,0],[1,0.5,0],[1,0.75,0]];outlineConnect=0;fontColor=#232F3E;fillColor=#ED7100;strokeColor=#ffffff;dashed=0;verticalLabelPosition=bottom;verticalAlign=top;align=center;html=1;fontSize=12;fontStyle=0;aspect=fixed;shape=mxgraph.aws4.resourceIcon;resIcon=mxgraph.aws4.lambda;" vertex="1" parent="VcwTWH4_keUuxqzdvM2R-22">
          <mxGeometry x="265.5" y="548.25" width="78" height="78" as="geometry" />
        </mxCell>
        <mxCell id="sgA1LJP8zv5Z8lZH73Rh-10" value="&lt;font style=&quot;font-size: 14px;&quot;&gt;product-queue&lt;/font&gt;" style="sketch=0;points=[[0,0,0],[0.25,0,0],[0.5,0,0],[0.75,0,0],[1,0,0],[0,1,0],[0.25,1,0],[0.5,1,0],[0.75,1,0],[1,1,0],[0,0.25,0],[0,0.5,0],[0,0.75,0],[1,0.25,0],[1,0.5,0],[1,0.75,0]];outlineConnect=0;fontColor=#232F3E;fillColor=#E7157B;strokeColor=#ffffff;dashed=0;verticalLabelPosition=bottom;verticalAlign=top;align=center;html=1;fontSize=12;fontStyle=0;aspect=fixed;shape=mxgraph.aws4.resourceIcon;resIcon=mxgraph.aws4.sqs;" vertex="1" parent="VcwTWH4_keUuxqzdvM2R-22">
          <mxGeometry x="265.5" y="227.25" width="78" height="78" as="geometry" />
        </mxCell>
        <mxCell id="sgA1LJP8zv5Z8lZH73Rh-8" value="&lt;font style=&quot;font-size: 14px;&quot;&gt;SaveProduct&lt;/font&gt;" style="sketch=0;points=[[0,0,0],[0.25,0,0],[0.5,0,0],[0.75,0,0],[1,0,0],[0,1,0],[0.25,1,0],[0.5,1,0],[0.75,1,0],[1,1,0],[0,0.25,0],[0,0.5,0],[0,0.75,0],[1,0.25,0],[1,0.5,0],[1,0.75,0]];outlineConnect=0;fontColor=#232F3E;fillColor=#ED7100;strokeColor=#ffffff;dashed=0;verticalLabelPosition=bottom;verticalAlign=top;align=center;html=1;fontSize=12;fontStyle=0;aspect=fixed;shape=mxgraph.aws4.resourceIcon;resIcon=mxgraph.aws4.lambda;" vertex="1" parent="VcwTWH4_keUuxqzdvM2R-22">
          <mxGeometry x="265.5" y="387.25" width="78" height="78" as="geometry" />
        </mxCell>
        <mxCell id="sgA1LJP8zv5Z8lZH73Rh-11" value="&lt;div style=&quot;font-size: 14px;&quot;&gt;Products table&lt;/div&gt;" style="sketch=0;points=[[0,0,0],[0.25,0,0],[0.5,0,0],[0.75,0,0],[1,0,0],[0,1,0],[0.25,1,0],[0.5,1,0],[0.75,1,0],[1,1,0],[0,0.25,0],[0,0.5,0],[0,0.75,0],[1,0.25,0],[1,0.5,0],[1,0.75,0]];outlineConnect=0;fontColor=#232F3E;fillColor=#C925D1;strokeColor=#ffffff;dashed=0;verticalLabelPosition=bottom;verticalAlign=top;align=center;html=1;fontSize=12;fontStyle=0;aspect=fixed;shape=mxgraph.aws4.resourceIcon;resIcon=mxgraph.aws4.dynamodb;" vertex="1" parent="VcwTWH4_keUuxqzdvM2R-22">
          <mxGeometry x="490" y="470.25" width="78" height="78" as="geometry" />
        </mxCell>
        <mxCell id="sgA1LJP8zv5Z8lZH73Rh-12" value="&lt;div style=&quot;font-size: 14px;&quot;&gt;&lt;font style=&quot;font-size: 14px;&quot;&gt;API Gateway&lt;/font&gt;&lt;/div&gt;" style="sketch=0;points=[[0,0,0],[0.25,0,0],[0.5,0,0],[0.75,0,0],[1,0,0],[0,1,0],[0.25,1,0],[0.5,1,0],[0.75,1,0],[1,1,0],[0,0.25,0],[0,0.5,0],[0,0.75,0],[1,0.25,0],[1,0.5,0],[1,0.75,0]];outlineConnect=0;fontColor=#232F3E;fillColor=#E7157B;strokeColor=#ffffff;dashed=0;verticalLabelPosition=bottom;verticalAlign=top;align=center;html=1;fontSize=12;fontStyle=0;aspect=fixed;shape=mxgraph.aws4.resourceIcon;resIcon=mxgraph.aws4.api_gateway;" vertex="1" parent="VcwTWH4_keUuxqzdvM2R-22">
          <mxGeometry x="64.5" y="548.25" width="78" height="78" as="geometry" />
        </mxCell>
        <mxCell id="VcwTWH4_keUuxqzdvM2R-61" style="edgeStyle=orthogonalEdgeStyle;rounded=0;orthogonalLoop=1;jettySize=auto;html=1;startArrow=classic;startFill=1;" parent="VcwTWH4_keUuxqzdvM2R-22" edge="1">
          <mxGeometry relative="1" as="geometry">
            <mxPoint x="-61" y="589" as="sourcePoint" />
            <mxPoint x="66" y="588.75" as="targetPoint" />
            <Array as="points">
              <mxPoint x="-10" y="589" />
              <mxPoint x="-10" y="589" />
            </Array>
          </mxGeometry>
        </mxCell>
        <mxCell id="sgA1LJP8zv5Z8lZH73Rh-17" style="edgeStyle=orthogonalEdgeStyle;rounded=0;orthogonalLoop=1;jettySize=auto;html=1;exitX=0.5;exitY=1;exitDx=0;exitDy=0;exitPerimeter=0;entryX=1;entryY=0.5;entryDx=0;entryDy=0;entryPerimeter=0;startArrow=classic;startFill=1;" edge="1" parent="VcwTWH4_keUuxqzdvM2R-22" source="sgA1LJP8zv5Z8lZH73Rh-11" target="sgA1LJP8zv5Z8lZH73Rh-3">
          <mxGeometry relative="1" as="geometry" />
        </mxCell>
        <mxCell id="sgA1LJP8zv5Z8lZH73Rh-20" style="edgeStyle=orthogonalEdgeStyle;rounded=0;orthogonalLoop=1;jettySize=auto;html=1;exitX=1;exitY=0.5;exitDx=0;exitDy=0;exitPerimeter=0;entryX=0;entryY=0.5;entryDx=0;entryDy=0;entryPerimeter=0;startArrow=classic;startFill=1;" edge="1" parent="VcwTWH4_keUuxqzdvM2R-22" source="sgA1LJP8zv5Z8lZH73Rh-1" target="sgA1LJP8zv5Z8lZH73Rh-2">
          <mxGeometry relative="1" as="geometry" />
        </mxCell>
        <mxCell id="sgA1LJP8zv5Z8lZH73Rh-21" style="edgeStyle=orthogonalEdgeStyle;rounded=0;orthogonalLoop=1;jettySize=auto;html=1;exitX=1;exitY=0.5;exitDx=0;exitDy=0;exitPerimeter=0;entryX=0.5;entryY=0;entryDx=0;entryDy=0;entryPerimeter=0;" edge="1" parent="VcwTWH4_keUuxqzdvM2R-22">
          <mxGeometry relative="1" as="geometry">
            <mxPoint x="343.5" y="427.25" as="sourcePoint" />
            <mxPoint x="529" y="471.25" as="targetPoint" />
          </mxGeometry>
        </mxCell>
        <mxCell id="VcwTWH4_keUuxqzdvM2R-23" value="&lt;div style=&quot;font-size: 13px;&quot;&gt;&lt;font style=&quot;font-size: 14px;&quot;&gt;Client&lt;/font&gt;&lt;/div&gt;" style="outlineConnect=0;dashed=0;verticalLabelPosition=bottom;verticalAlign=top;align=center;html=1;shape=mxgraph.aws3.management_console;fillColor=#D2D3D3;gradientColor=none;" parent="1" vertex="1">
          <mxGeometry x="66" y="610" width="63" height="63" as="geometry" />
        </mxCell>
        <mxCell id="VcwTWH4_keUuxqzdvM2R-62" value="&lt;div style=&quot;font-size: 13px;&quot;&gt;&lt;font style=&quot;font-size: 14px;&quot;&gt;Client&lt;/font&gt;&lt;/div&gt;" style="outlineConnect=0;dashed=0;verticalLabelPosition=bottom;verticalAlign=top;align=center;html=1;shape=mxgraph.aws3.management_console;fillColor=#D2D3D3;gradientColor=none;" parent="1" vertex="1">
          <mxGeometry x="66" y="114.75" width="63" height="63" as="geometry" />
        </mxCell>
        <mxCell id="sgA1LJP8zv5Z8lZH73Rh-18" style="edgeStyle=orthogonalEdgeStyle;rounded=0;orthogonalLoop=1;jettySize=auto;html=1;exitX=0;exitY=0.5;exitDx=0;exitDy=0;exitPerimeter=0;entryX=1;entryY=0.5;entryDx=0;entryDy=0;entryPerimeter=0;startArrow=classic;startFill=1;endArrow=none;endFill=0;" edge="1" parent="1" source="sgA1LJP8zv5Z8lZH73Rh-1" target="VcwTWH4_keUuxqzdvM2R-62">
          <mxGeometry relative="1" as="geometry" />
        </mxCell>
        <mxCell id="sgA1LJP8zv5Z8lZH73Rh-19" value="&lt;font style=&quot;font-size: 14px;&quot;&gt;Data.json&lt;/font&gt;" style="edgeLabel;html=1;align=center;verticalAlign=middle;resizable=0;points=[];" vertex="1" connectable="0" parent="sgA1LJP8zv5Z8lZH73Rh-18">
          <mxGeometry x="0.2669" y="-1" relative="1" as="geometry">
            <mxPoint x="11" y="10" as="offset" />
          </mxGeometry>
        </mxCell>
      </root>
    </mxGraphModel>
  </diagram>
</mxfile>
